# This file uses centimeters as units for non-parametric coordinates.

mtllib fish.mtl
g default
v -0.056105 0.020008 -0.186238
v -0.000000 -0.060938 -0.124271
v  0.055317 0.020008 -0.186238
v -0.000194 0.052660 0.077684
v  0.000000 0.109188 -0.503071
v -0.067395 0.000000 -0.503071
v  0.067395 -0.000000 -0.503071
v -0.000000 -0.095841 -0.503071
v -0.000000 0.070247 -0.682191
v -0.015033 0.024598 -0.736539
v  0.015033 0.024598 -0.736539
v -0.000000 -0.025444 -0.682191
v -0.000000 0.113931 -0.909036
v -0.000000 -0.113931 -0.909036
vt 0.500000 0.033494
vt 0.250000 0.250000
vt 0.500000 0.466506
vt 0.750000 0.250000
vt 0.291667 0.500000
vt 0.416667 0.500000
vt 0.541667 0.500000
vt 0.583333 0.750000
vt 0.500000 0.033494
vt 0.750000 0.250000
vt 0.500000 0.466506
vt 0.250000 0.250000
vt 0.500000 0.033494
vt 0.750000 0.250000
vt 0.500000 0.466506
vt 0.250000 0.250000
vt 0.750000 0.250000
vt 0.250000 0.250000
vn -0.000000 -0.887984 -0.459874
vn -0.000000 -0.099218 -0.995066
vn -0.000000 -0.099218 -0.995066
vn  0.000000 0.779696 -0.626158
vn -0.977184 -0.164694 0.134117
vn -0.857276 -0.492077 0.151452
vn -0.982643 0.079307 0.167701
vn  0.859728 -0.487854 0.151215
vn  0.977609 -0.162237 0.134016
vn  0.982673 0.080335 0.167035
vn -0.827253 0.559647 -0.049487
vn -0.996741 0.006209 -0.080429
vn  0.996800 0.006306 -0.079692
vn  0.828049 0.558516 -0.048941
vn  0.827996 -0.554458 -0.083657
vn -0.827033 -0.555812 -0.084202
vn -0.927728 0.372065 -0.029818
vn -0.998940 0.012088 -0.044422
vn  0.998940 0.012088 -0.044422
vn  0.927728 0.372065 -0.029818
vn  0.931271 -0.360423 -0.053193
vn -0.931271 -0.360423 -0.053193
vn -0.964740 0.258458 0.049773
vn  0.964740 0.258458 0.049773
vn  0.975294 -0.205808 0.080281
vn -0.975294 -0.205807 0.080281
s 1
usemtl fish
g pCone1
f 13/17/1 11/15/2 10/13/3
f 10/13/3 11/15/2 14/18/4
s 2
f 1/5/5 2/6/6 4/8/7
s 3
f 2/6/8 3/7/9 4/8/10
s 2
f 1/1/5 4/4/7 5/10/11 6/9/12
s 3
f 4/4/10 3/3/9 7/11/13 5/10/14
f 3/3/9 2/2/8 8/12/15 7/11/13
s 2
f 2/2/6 1/1/5 6/9/12 8/12/16
f 6/9/12 5/10/11 9/14/17 10/13/18
s 3
f 5/10/14 7/11/13 11/15/19 9/14/20
f 7/11/13 8/12/15 12/16/21 11/15/19
s 2
f 8/12/16 6/9/12 10/13/18 12/16/22
f 10/13/18 9/14/17 13/17/23
s 3
f 9/14/20 11/15/19 13/17/24
f 11/15/19 12/16/21 14/18/25
s 2
f 12/16/22 10/13/18 14/18/26
