# This file uses centimeters as units for non-parametric coordinates.

mtllib submarine.mtl
v -11.054238 -0.314157 -1.638343
v -11.025599 -0.070654 -1.379240
v -10.994315 0.068958 -1.084383
v -11.026012 0.203958 -0.628267
v -11.050000 0.156453 -0.315427
v -11.253194 -0.140978 -0.175001
v -11.475281 -0.511286 -0.255219
v -11.530038 -0.937655 -0.414998
v -11.441990 -1.186655 -0.745166
v -11.276632 -1.290479 -1.182513
v -11.226430 -1.067037 -1.492868
v -11.118549 -0.635405 -1.696691
v -10.954238 -0.314157 -1.638343
v -10.925599 -0.070654 -1.379240
v -10.894315 0.068958 -1.084383
v -10.926012 0.203958 -0.628267
v -10.950000 0.156453 -0.315427
v -11.153194 -0.140978 -0.175001
v -11.375281 -0.511286 -0.255219
v -11.430038 -0.937655 -0.414998
v -11.341990 -1.186655 -0.745166
v -11.176632 -1.290479 -1.182513
v -11.126430 -1.067037 -1.492868
v -11.018549 -0.635405 -1.696691
v -11.103739 -0.388192 -0.935846
v -11.003739 -0.388192 -0.935846
vt 0.311089 0.531649
vt 0.259436 0.583204
vt 0.240480 0.653678
vt 0.259302 0.724189
vt 0.310856 0.775842
vt 0.381331 0.794797
vt 0.451841 0.775976
vt 0.503494 0.724421
vt 0.522450 0.653947
vt 0.503628 0.583437
vt 0.452074 0.531784
vt 0.381599 0.512828
vt 0.522342 0.766734
vt 0.522360 0.747937
vt 0.522378 0.729138
vt 0.522396 0.710341
vt 0.522414 0.691543
vt 0.522432 0.672745
vt 0.522450 0.653947
vt 0.522467 0.635149
vt 0.522485 0.616351
vt 0.522503 0.597553
vt 0.522521 0.578755
vt 0.522539 0.559957
vt 0.522557 0.541160
vt 0.569827 0.767057
vt 0.569846 0.748260
vt 0.569863 0.729462
vt 0.569881 0.710664
vt 0.569899 0.691865
vt 0.569917 0.673068
vt 0.569935 0.654270
vt 0.569953 0.635472
vt 0.569971 0.616674
vt 0.569989 0.597876
vt 0.570007 0.579078
vt 0.570024 0.560280
vt 0.570042 0.541482
vt 0.639696 0.532240
vt 0.588042 0.583795
vt 0.569087 0.654269
vt 0.587908 0.724779
vt 0.639463 0.776432
vt 0.709937 0.795388
vt 0.780448 0.776567
vt 0.832101 0.725012
vt 0.851056 0.654537
vt 0.832235 0.584027
vt 0.780680 0.532374
vt 0.710206 0.513419
vt 0.375826 0.653807
vt 0.704432 0.654398
vn -0.596590 0.456552 -0.660031
vn -0.570084 0.706828 -0.418806
vn 0.682757 0.566419 -0.461533
vn 0.680695 0.260831 -0.684560
vn -0.555818 0.779464 -0.288967
vn 0.692656 0.670000 -0.267073
vn -0.575185 0.811821 -0.100544
vn 0.687850 0.725843 0.003781
vn -0.592403 0.749314 0.295952
vn 0.676762 0.414627 0.608340
vn -0.632261 0.476613 0.610808
vn 0.484965 -0.215028 0.847686
vn -0.736766 0.067327 0.672788
vn 0.441114 -0.395567 0.805572
vn -0.801631 -0.387862 0.454918
vn 0.464967 -0.511795 0.722407
vn -0.739309 -0.669529 0.071789
vn 0.475415 -0.725543 0.497562
vn -0.697490 -0.640660 -0.321035
vn 0.574022 -0.818836 -0.002297
vn -0.660539 -0.379574 -0.647774
vn 0.595929 -0.593722 -0.540706
vn -0.624363 0.036953 -0.780260
vn 0.637903 -0.238861 -0.732137
vn -0.942845 0.270722 -0.194302
vn 0.942845 -0.270722 0.194302
usemtl phong1SG
f 1/13/1 2/14/2 14/27/3 13/26/4
f 2/14/2 3/15/5 15/28/6 14/27/3
f 3/15/5 4/16/7 16/29/8 15/28/6
f 4/16/7 5/17/9 17/30/10 16/29/8
f 5/17/9 6/18/11 18/31/12 17/30/10
f 6/18/11 7/19/13 19/32/14 18/31/12
f 7/19/13 8/20/15 20/33/16 19/32/14
f 8/20/15 9/21/17 21/34/18 20/33/16
f 9/21/17 10/22/19 22/35/20 21/34/18
f 10/22/19 11/23/21 23/36/22 22/35/20
f 11/23/21 12/24/23 24/37/24 23/36/22
f 12/24/23 1/25/1 13/38/4 24/37/24
f 2/2/2 1/1/1 25/51/25
f 3/3/5 2/2/2 25/51/25
f 4/4/7 3/3/5 25/51/25
f 5/5/9 4/4/7 25/51/25
f 6/6/11 5/5/9 25/51/25
f 7/7/13 6/6/11 25/51/25
f 8/8/15 7/7/13 25/51/25
f 9/9/17 8/8/15 25/51/25
f 10/10/19 9/9/17 25/51/25
f 11/11/21 10/10/19 25/51/25
f 12/12/23 11/11/21 25/51/25
f 1/1/1 12/12/23 25/51/25
f 13/49/4 14/48/3 26/52/26
f 14/48/3 15/47/6 26/52/26
f 15/47/6 16/46/8 26/52/26
f 16/46/8 17/45/10 26/52/26
f 17/45/10 18/44/12 26/52/26
f 18/44/12 19/43/14 26/52/26
f 19/43/14 20/42/16 26/52/26
f 20/42/16 21/41/18 26/52/26
f 21/41/18 22/40/20 26/52/26
f 22/40/20 23/39/22 26/52/26
f 23/39/22 24/50/24 26/52/26
f 24/50/24 13/49/4 26/52/26
v -11.054238 1.461076 -0.805057
v -11.025599 1.289902 -0.493405
v -10.994315 1.052618 -0.269510
v -11.026012 0.660544 -0.000170
v -11.050000 0.348335 0.051323
v -11.253194 0.122871 -0.188156
v -11.475281 0.084732 -0.565129
v -11.530038 0.104935 -1.020004
v -11.441990 0.341999 -1.358845
v -11.276632 0.725856 -1.592735
v -11.226430 1.090070 -1.476134
v -11.118549 1.417298 -1.128613
v -10.954238 1.461076 -0.805057
v -10.925599 1.289902 -0.493405
v -10.894315 1.052618 -0.269510
v -10.926012 0.660544 -0.000170
v -10.950000 0.348335 0.051323
v -11.153194 0.122871 -0.188156
v -11.375281 0.084732 -0.565129
v -11.430038 0.104935 -1.020004
v -11.341990 0.341999 -1.358845
v -11.176632 0.725856 -1.592735
v -11.126430 1.090070 -1.476134
v -11.018549 1.417298 -1.128613
v -11.103739 0.770084 -0.658384
v -11.003739 0.770084 -0.658384
vt 0.311089 0.531649
vt 0.259436 0.583204
vt 0.240480 0.653678
vt 0.259302 0.724189
vt 0.310856 0.775842
vt 0.381331 0.794797
vt 0.451841 0.775976
vt 0.503494 0.724421
vt 0.522450 0.653947
vt 0.503628 0.583437
vt 0.452074 0.531784
vt 0.381599 0.512828
vt 0.522342 0.766734
vt 0.522360 0.747937
vt 0.522378 0.729138
vt 0.522396 0.710341
vt 0.522414 0.691543
vt 0.522432 0.672745
vt 0.522450 0.653947
vt 0.522467 0.635149
vt 0.522485 0.616351
vt 0.522503 0.597553
vt 0.522521 0.578755
vt 0.522539 0.559957
vt 0.522557 0.541160
vt 0.569827 0.767057
vt 0.569846 0.748260
vt 0.569863 0.729462
vt 0.569881 0.710664
vt 0.569899 0.691865
vt 0.569917 0.673068
vt 0.569935 0.654270
vt 0.569953 0.635472
vt 0.569971 0.616674
vt 0.569989 0.597876
vt 0.570007 0.579078
vt 0.570024 0.560280
vt 0.570042 0.541482
vt 0.639696 0.532240
vt 0.588042 0.583795
vt 0.569087 0.654269
vt 0.587908 0.724779
vt 0.639463 0.776432
vt 0.709937 0.795388
vt 0.780448 0.776567
vt 0.832101 0.725012
vt 0.851056 0.654537
vt 0.832235 0.584027
vt 0.780680 0.532374
vt 0.710206 0.513419
vt 0.375826 0.653807
vt 0.704432 0.654398
vn -0.596590 0.768809 0.230246
vn -0.570084 0.616730 0.542815
vn 0.682757 0.613977 0.396075
vn 0.680695 0.731656 0.036525
vn -0.555818 0.515691 0.652019
vn 0.692656 0.461043 0.554678
vn -0.575185 0.346490 0.741018
vn 0.687850 0.220702 0.691486
vn -0.592403 -0.049916 0.804094
vn 0.676762 -0.450439 0.582321
vn -0.632261 -0.433631 0.642036
vn 0.484965 -0.872645 0.057445
vn -0.736766 -0.619054 0.271934
vn 0.441114 -0.888381 -0.127271
vn -0.801631 -0.552509 -0.228302
vn 0.464967 -0.845203 -0.263510
vn -0.739309 -0.275171 -0.614576
vn 0.475415 -0.697415 -0.536277
vn -0.697490 0.107348 -0.708509
vn 0.574022 -0.250849 -0.779470
vn -0.660539 0.498775 -0.561170
vn 0.595929 0.330772 -0.731750
vn -0.624363 0.753491 -0.205970
vn 0.637903 0.622492 -0.453413
vn -0.942845 0.268450 0.197430
vn 0.942845 -0.268450 -0.197430
f 27/65/27 28/66/28 40/79/29 39/78/30
f 28/66/28 29/67/31 41/80/32 40/79/29
f 29/67/31 30/68/33 42/81/34 41/80/32
f 30/68/33 31/69/35 43/82/36 42/81/34
f 31/69/35 32/70/37 44/83/38 43/82/36
f 32/70/37 33/71/39 45/84/40 44/83/38
f 33/71/39 34/72/41 46/85/42 45/84/40
f 34/72/41 35/73/43 47/86/44 46/85/42
f 35/73/43 36/74/45 48/87/46 47/86/44
f 36/74/45 37/75/47 49/88/48 48/87/46
f 37/75/47 38/76/49 50/89/50 49/88/48
f 38/76/49 27/77/27 39/90/30 50/89/50
f 28/54/28 27/53/27 51/103/51
f 29/55/31 28/54/28 51/103/51
f 30/56/33 29/55/31 51/103/51
f 31/57/35 30/56/33 51/103/51
f 32/58/37 31/57/35 51/103/51
f 33/59/39 32/58/37 51/103/51
f 34/60/41 33/59/39 51/103/51
f 35/61/43 34/60/41 51/103/51
f 36/62/45 35/61/43 51/103/51
f 37/63/47 36/62/45 51/103/51
f 38/64/49 37/63/47 51/103/51
f 27/53/27 38/64/49 51/103/51
f 39/101/30 40/100/29 52/104/52
f 40/100/29 41/99/32 52/104/52
f 41/99/32 42/98/34 52/104/52
f 42/98/34 43/97/36 52/104/52
f 43/97/36 44/96/38 52/104/52
f 44/96/38 45/95/40 52/104/52
f 45/95/40 46/94/42 52/104/52
f 46/94/42 47/93/44 52/104/52
f 47/93/44 48/92/46 52/104/52
f 48/92/46 49/91/48 52/104/52
f 49/91/48 50/102/50 52/104/52
f 50/102/50 39/101/30 52/104/52
v -11.054238 1.217152 1.140790
v -11.025599 0.867858 1.074299
v -10.994315 0.581596 0.917817
v -11.026012 0.204281 0.628162
v -11.050000 0.058830 0.347146
v -11.253194 0.216916 0.058714
v -11.475281 0.563653 -0.094050
v -11.530038 1.002508 -0.215399
v -11.441990 1.398022 -0.094646
v -11.276632 1.739083 0.198148
v -11.226430 1.740737 0.580567
v -11.118549 1.511344 0.999170
v -10.954238 1.217152 1.140790
v -10.925599 0.867858 1.074299
v -10.894315 0.581596 0.917817
v -10.926012 0.204281 0.628162
v -10.950000 0.058830 0.347146
v -11.153194 0.216916 0.058714
v -11.375281 0.563653 -0.094050
v -11.430038 1.002508 -0.215399
v -11.341990 1.398022 -0.094646
v -11.176632 1.739083 0.198148
v -11.126430 1.740737 0.580567
v -11.018549 1.511344 0.999170
v -11.103739 0.864130 0.528942
v -11.003739 0.864130 0.528942
vt 0.311089 0.531649
vt 0.259436 0.583204
vt 0.240480 0.653678
vt 0.259302 0.724189
vt 0.310856 0.775842
vt 0.381331 0.794797
vt 0.451841 0.775976
vt 0.503494 0.724421
vt 0.522450 0.653947
vt 0.503628 0.583437
vt 0.452074 0.531784
vt 0.381599 0.512828
vt 0.522342 0.766734
vt 0.522360 0.747937
vt 0.522378 0.729138
vt 0.522396 0.710341
vt 0.522414 0.691543
vt 0.522432 0.672745
vt 0.522450 0.653947
vt 0.522467 0.635149
vt 0.522485 0.616351
vt 0.522503 0.597553
vt 0.522521 0.578755
vt 0.522539 0.559957
vt 0.522557 0.541160
vt 0.569827 0.767057
vt 0.569846 0.748260
vt 0.569863 0.729462
vt 0.569881 0.710664
vt 0.569899 0.691865
vt 0.569917 0.673068
vt 0.569935 0.654270
vt 0.569953 0.635472
vt 0.569971 0.616674
vt 0.569989 0.597876
vt 0.570007 0.579078
vt 0.570024 0.560280
vt 0.570042 0.541482
vt 0.639696 0.532240
vt 0.588042 0.583795
vt 0.569087 0.654269
vt 0.587908 0.724779
vt 0.639463 0.776432
vt 0.709937 0.795388
vt 0.780448 0.776567
vt 0.832101 0.725012
vt 0.851056 0.654537
vt 0.832235 0.584027
vt 0.780680 0.532374
vt 0.710206 0.513419
vt 0.375826 0.653807
vt 0.704432 0.654398
vn -0.596590 0.018598 0.802331
vn -0.570084 -0.325667 0.754284
vn 0.682757 -0.186961 0.706321
vn 0.680695 0.191357 0.707133
vn -0.555818 -0.460750 0.691936
vn 0.692656 -0.385060 0.609883
vn -0.575185 -0.597679 0.558518
vn 0.687850 -0.589442 0.423581
vn -0.592403 -0.780164 0.201005
vn 0.676762 -0.693013 -0.248446
vn -0.632261 -0.744612 -0.214008
vn 0.484965 -0.324296 -0.812183
vn -0.736766 -0.449923 -0.504723
vn 0.441114 -0.153483 -0.884229
vn -0.801631 0.046393 -0.596016
vn 0.464967 -0.010570 -0.885265
vn -0.739309 0.499463 -0.451618
vn 0.475415 0.294517 -0.829000
vn -0.697490 0.707004 -0.116847
vn 0.574022 0.663803 -0.479441
vn -0.660539 0.687834 0.300952
vn 0.595929 0.798150 0.088459
vn -0.624363 0.428730 0.652964
vn 0.637903 0.623582 0.451913
vn -0.942845 -0.104811 0.316320
vn 0.942845 0.104811 -0.316320
f 53/117/53 54/118/54 66/131/55 65/130/56
f 54/118/54 55/119/57 67/132/58 66/131/55
f 55/119/57 56/120/59 68/133/60 67/132/58
f 56/120/59 57/121/61 69/134/62 68/133/60
f 57/121/61 58/122/63 70/135/64 69/134/62
f 58/122/63 59/123/65 71/136/66 70/135/64
f 59/123/65 60/124/67 72/137/68 71/136/66
f 60/124/67 61/125/69 73/138/70 72/137/68
f 61/125/69 62/126/71 74/139/72 73/138/70
f 62/126/71 63/127/73 75/140/74 74/139/72
f 63/127/73 64/128/75 76/141/76 75/140/74
f 64/128/75 53/129/53 65/142/56 76/141/76
f 54/106/54 53/105/53 77/155/77
f 55/107/57 54/106/54 77/155/77
f 56/108/59 55/107/57 77/155/77
f 57/109/61 56/108/59 77/155/77
f 58/110/63 57/109/61 77/155/77
f 59/111/65 58/110/63 77/155/77
f 60/112/67 59/111/65 77/155/77
f 61/113/69 60/112/67 77/155/77
f 62/114/71 61/113/69 77/155/77
f 63/115/73 62/114/71 77/155/77
f 64/116/75 63/115/73 77/155/77
f 53/105/53 64/116/75 77/155/77
f 65/153/56 66/152/55 78/156/78
f 66/152/55 67/151/58 78/156/78
f 67/151/58 68/150/60 78/156/78
f 68/150/60 69/149/62 78/156/78
f 69/149/62 70/148/64 78/156/78
f 70/148/64 71/147/66 78/156/78
f 71/147/66 72/146/68 78/156/78
f 72/146/68 73/145/70 78/156/78
f 73/145/70 74/144/72 78/156/78
f 74/144/72 75/143/74 78/156/78
f 75/143/74 76/154/76 78/156/78
f 76/154/76 65/153/56 78/156/78
v -11.054238 -0.708835 1.510104
v -11.025599 -0.753536 1.157358
v -10.994315 -0.693172 0.836751
v -11.026012 -0.534291 0.388395
v -11.050000 -0.311976 0.163225
v -11.253194 0.011191 0.224443
v -11.475281 0.263625 0.507003
v -11.530038 0.514649 0.886880
v -11.441990 0.522026 1.300350
v -11.276632 0.348956 1.715198
v -11.226430 -0.014235 1.834944
v -11.118549 -0.483236 1.746134
v -10.954238 -0.708835 1.510104
v -10.925599 -0.753536 1.157358
v -10.894315 -0.693172 0.836751
v -10.926012 -0.534291 0.388395
v -10.950000 -0.311976 0.163225
v -11.153194 0.011191 0.224443
v -11.375281 0.263625 0.507003
v -11.430038 0.514649 0.886880
v -11.341990 0.522026 1.300350
v -11.176632 0.348956 1.715198
v -11.126430 -0.014235 1.834944
v -11.018549 -0.483236 1.746134
v -11.103739 -0.236023 0.985288
v -11.003739 -0.236023 0.985288
vt 0.311089 0.531649
vt 0.259436 0.583204
vt 0.240480 0.653678
vt 0.259302 0.724189
vt 0.310856 0.775842
vt 0.381331 0.794797
vt 0.451841 0.775976
vt 0.503494 0.724421
vt 0.522450 0.653947
vt 0.503628 0.583437
vt 0.452074 0.531784
vt 0.381599 0.512828
vt 0.522342 0.766734
vt 0.522360 0.747937
vt 0.522378 0.729138
vt 0.522396 0.710341
vt 0.522414 0.691543
vt 0.522432 0.672745
vt 0.522450 0.653947
vt 0.522467 0.635149
vt 0.522485 0.616351
vt 0.522503 0.597553
vt 0.522521 0.578755
vt 0.522539 0.559957
vt 0.522557 0.541160
vt 0.569827 0.767057
vt 0.569846 0.748260
vt 0.569863 0.729462
vt 0.569881 0.710664
vt 0.569899 0.691865
vt 0.569917 0.673068
vt 0.569935 0.654270
vt 0.569953 0.635472
vt 0.569971 0.616674
vt 0.569989 0.597876
vt 0.570007 0.579078
vt 0.570024 0.560280
vt 0.570042 0.541482
vt 0.639696 0.532240
vt 0.588042 0.583795
vt 0.569087 0.654269
vt 0.587908 0.724779
vt 0.639463 0.776432
vt 0.709937 0.795388
vt 0.780448 0.776567
vt 0.832101 0.725012
vt 0.851056 0.654537
vt 0.832235 0.584027
vt 0.780680 0.532374
vt 0.710206 0.513419
vt 0.375826 0.653807
vt 0.704432 0.654398
vn -0.596590 -0.757315 0.265621
vn -0.570084 -0.818004 -0.076641
vn 0.682757 -0.729525 0.040455
vn 0.680695 -0.613391 0.400508
vn -0.555818 -0.800450 -0.224379
vn 0.692656 -0.699023 -0.177750
vn -0.575185 -0.715875 -0.395835
vn 0.687850 -0.584997 -0.429698
vn -0.592403 -0.432251 -0.679866
vn 0.676762 0.022134 -0.735869
vn -0.632261 -0.026564 -0.774300
vn 0.484965 0.672219 -0.559402
vn -0.736766 0.340986 -0.583870
vn 0.441114 0.793523 -0.419213
vn -0.801631 0.581182 -0.140057
vn 0.464967 0.838671 -0.283614
vn -0.739309 0.583856 0.335461
vn 0.475415 0.879436 0.023927
vn -0.697490 0.329605 0.636293
vn 0.574022 0.661102 0.483159
vn -0.660539 -0.073670 0.747169
vn 0.595929 0.162512 0.786421
vn -0.624363 -0.488521 0.609524
vn 0.637903 -0.237097 0.732711
vn -0.942845 -0.333227 -0.001933
vn 0.942845 0.333227 0.001933
f 79/169/79 80/170/80 92/183/81 91/182/82
f 80/170/80 81/171/83 93/184/84 92/183/81
f 81/171/83 82/172/85 94/185/86 93/184/84
f 82/172/85 83/173/87 95/186/88 94/185/86
f 83/173/87 84/174/89 96/187/90 95/186/88
f 84/174/89 85/175/91 97/188/92 96/187/90
f 85/175/91 86/176/93 98/189/94 97/188/92
f 86/176/93 87/177/95 99/190/96 98/189/94
f 87/177/95 88/178/97 100/191/98 99/190/96
f 88/178/97 89/179/99 101/192/100 100/191/98
f 89/179/99 90/180/101 102/193/102 101/192/100
f 90/180/101 79/181/79 91/194/82 102/193/102
f 80/158/80 79/157/79 103/207/103
f 81/159/83 80/158/80 103/207/103
f 82/160/85 81/159/83 103/207/103
f 83/161/87 82/160/85 103/207/103
f 84/162/89 83/161/87 103/207/103
f 85/163/91 84/162/89 103/207/103
f 86/164/93 85/163/91 103/207/103
f 87/165/95 86/164/93 103/207/103
f 88/166/97 87/165/95 103/207/103
f 89/167/99 88/166/97 103/207/103
f 90/168/101 89/167/99 103/207/103
f 79/157/79 90/168/101 103/207/103
f 91/205/82 92/204/81 104/208/104
f 92/204/81 93/203/84 104/208/104
f 93/203/84 94/202/86 104/208/104
f 94/202/86 95/201/88 104/208/104
f 95/201/88 96/200/90 104/208/104
f 96/200/90 97/199/92 104/208/104
f 97/199/92 98/198/94 104/208/104
f 98/198/94 99/197/96 104/208/104
f 99/197/96 100/196/98 104/208/104
f 100/196/98 101/195/100 104/208/104
f 101/195/100 102/206/102 104/208/104
f 102/206/102 91/205/82 104/208/104
v -11.054238 -1.655236 -0.207494
v -11.025599 -1.333569 -0.359012
v -10.994315 -1.010000 -0.400676
v -11.026012 -0.534491 -0.388121
v -11.050000 -0.251642 -0.246268
v -11.253194 -0.210000 0.080000
v -11.475281 -0.400724 0.407395
v -11.530038 -0.684438 0.763521
v -11.441990 -1.075392 0.898307
v -11.276632 -1.523416 0.861902
v -11.226430 -1.749535 0.553491
v -11.118549 -1.810000 0.080000
v -10.954238 -1.655236 -0.207494
v -10.925599 -1.333569 -0.359012
v -10.894315 -1.010000 -0.400676
v -10.926012 -0.534491 -0.388121
v -10.950000 -0.251642 -0.246268
v -11.153194 -0.210000 0.080000
v -11.375281 -0.400724 0.407395
v -11.430038 -0.684438 0.763521
v -11.341990 -1.075392 0.898307
v -11.176632 -1.523416 0.861902
v -11.126430 -1.749535 0.553491
v -11.018549 -1.810000 0.080000
v -11.103739 -1.010000 0.080000
v -11.003739 -1.010000 0.080000
vt 0.311089 0.531649
vt 0.259436 0.583204
vt 0.240480 0.653678
vt 0.259302 0.724189
vt 0.310856 0.775842
vt 0.381331 0.794797
vt 0.451841 0.775976
vt 0.503494 0.724421
vt 0.522450 0.653947
vt 0.503628 0.583437
vt 0.452074 0.531784
vt 0.381599 0.512828
vt 0.522342 0.766734
vt 0.522360 0.747937
vt 0.522378 0.729138
vt 0.522396 0.710341
vt 0.522414 0.691543
vt 0.522432 0.672745
vt 0.522450 0.653947
vt 0.522467 0.635149
vt 0.522485 0.616351
vt 0.522503 0.597553
vt 0.522521 0.578755
vt 0.522539 0.559957
vt 0.522557 0.541160
vt 0.569827 0.767057
vt 0.569846 0.748260
vt 0.569863 0.729462
vt 0.569881 0.710664
vt 0.569899 0.691865
vt 0.569917 0.673068
vt 0.569935 0.654270
vt 0.569953 0.635472
vt 0.569971 0.616674
vt 0.569989 0.597876
vt 0.570007 0.579078
vt 0.570024 0.560280
vt 0.570042 0.541482
vt 0.639696 0.532240
vt 0.588042 0.583795
vt 0.569087 0.654269
vt 0.587908 0.724779
vt 0.639463 0.776432
vt 0.709937 0.795388
vt 0.780448 0.776567
vt 0.832101 0.725012
vt 0.851056 0.654537
vt 0.832235 0.584027
vt 0.780680 0.532374
vt 0.710206 0.513419
vt 0.375826 0.653807
vt 0.704432 0.654398
vn -0.596590 -0.486644 -0.638168
vn -0.570084 -0.179887 -0.801651
vn 0.682757 -0.263911 -0.681318
vn 0.680695 -0.570454 -0.459606
vn -0.555818 -0.033956 -0.830610
vn 0.692656 -0.046960 -0.719738
vn -0.575185 0.155243 -0.803158
vn 0.687850 0.227893 -0.689149
vn -0.592403 0.513018 -0.621186
vn 0.676762 0.706693 -0.206346
vn -0.632261 0.728194 -0.264536
vn 0.484965 0.739750 0.466454
vn -0.736766 0.660664 0.143871
vn 0.441114 0.643907 0.625142
vn -0.801631 0.312797 0.509457
vn 0.464967 0.528897 0.709982
vn -0.739309 -0.138620 0.658944
vn 0.475415 0.249005 0.843788
vn -0.697490 -0.503297 0.510098
vn 0.574022 -0.255219 0.778050
vn -0.660539 -0.733365 0.160824
vn 0.595929 -0.697712 0.397576
vn -0.624363 -0.730652 -0.276258
vn 0.637903 -0.770116 0.000927
vn -0.942845 -0.101134 -0.317515
vn 0.942845 0.101134 0.317515
f 105/221/105 106/222/106 118/235/107 117/234/108
f 106/222/106 107/223/109 119/236/110 118/235/107
f 107/223/109 108/224/111 120/237/112 119/236/110
f 108/224/111 109/225/113 121/238/114 120/237/112
f 109/225/113 110/226/115 122/239/116 121/238/114
f 110/226/115 111/227/117 123/240/118 122/239/116
f 111/227/117 112/228/119 124/241/120 123/240/118
f 112/228/119 113/229/121 125/242/122 124/241/120
f 113/229/121 114/230/123 126/243/124 125/242/122
f 114/230/123 115/231/125 127/244/126 126/243/124
f 115/231/125 116/232/127 128/245/128 127/244/126
f 116/232/127 105/233/105 117/246/108 128/245/128
f 106/210/106 105/209/105 129/259/129
f 107/211/109 106/210/106 129/259/129
f 108/212/111 107/211/109 129/259/129
f 109/213/113 108/212/111 129/259/129
f 110/214/115 109/213/113 129/259/129
f 111/215/117 110/214/115 129/259/129
f 112/216/119 111/215/117 129/259/129
f 113/217/121 112/216/119 129/259/129
f 114/218/123 113/217/121 129/259/129
f 115/219/125 114/218/123 129/259/129
f 116/220/127 115/219/125 129/259/129
f 105/209/105 116/220/127 129/259/129
f 117/257/108 118/256/107 130/260/130
f 118/256/107 119/255/110 130/260/130
f 119/255/110 120/254/112 130/260/130
f 120/254/112 121/253/114 130/260/130
f 121/253/114 122/252/116 130/260/130
f 122/252/116 123/251/118 130/260/130
f 123/251/118 124/250/120 130/260/130
f 124/250/120 125/249/122 130/260/130
f 125/249/122 126/248/124 130/260/130
f 126/248/124 127/247/126 130/260/130
f 127/247/126 128/258/128 130/260/130
f 128/258/128 117/257/108 130/260/130
